<svg xmlns="http://www.w3.org/2000/svg" version="1.1" xmlns:xlink="http://www.w3.org/1999/xlink" xmlns:svgjs="http://svgjs.com/svgjs" width="1000" height="1000"><rect width="1000" height="1000" rx="400" ry="400" fill="#ffffff"></rect><g transform="matrix(1.953125,0,0,1.953125,0.6471145153045654,185.79979974031448)"><svg xmlns="http://www.w3.org/2000/svg" version="1.1" xmlns:xlink="http://www.w3.org/1999/xlink" xmlns:svgjs="http://svgjs.com/svgjs" width="512" height="319"><svg xmlns="http://www.w3.org/2000/svg" width="512" height="319" viewBox="0 0 512 319" version="1.1"><path d="M 208 48.492 C 182.553 50.708, 158.254 53.721, 142.500 56.615 C 128.343 59.215, 126.230 61.686, 114.375 89.500 C 111.796 95.550, 108.153 103.584, 106.279 107.352 C 102.218 115.520, 102.125 115.360, 110.421 114.472 L 117 113.767 116.988 110.134 C 116.835 62.385, 213.259 37.010, 328.413 54.495 C 339.869 56.234, 342.801 56.374, 341.450 55.115 C 340.532 54.260, 318.567 51.063, 299 48.937 C 283.345 47.235, 225.671 46.953, 208 48.492 M 228 57.864 C 221.436 58.355, 225.763 58.682, 247 59.300 C 284.822 60.400, 319.379 63.216, 326 65.736 C 326.825 66.050, 328.288 66.210, 329.250 66.091 C 330.212 65.972, 331 66.338, 331 66.906 C 331 67.473, 331.638 67.693, 332.417 67.394 C 340.873 64.149, 372.130 82.701, 374.567 92.412 C 378.481 108.005, 369.957 110, 299.412 110 C 265.804 110, 248 110.346, 248 111 C 248 111.638, 256.949 112.017, 272.750 112.048 C 301.970 112.105, 348.090 113.447, 373.871 114.991 C 395.677 116.297, 394.149 117.177, 389.102 106.222 C 386.846 101.324, 385 96.864, 385 96.311 C 385 94.606, 374.448 78.392, 369.851 73.033 C 364.485 66.778, 362.640 66.269, 329.500 61.896 C 302.001 58.267, 250.149 56.208, 228 57.864 M 356 64.500 C 356 64.775, 356.225 65, 356.500 65 C 356.775 65, 357 64.775, 357 64.500 C 357 64.225, 356.775 64, 356.500 64 C 356.225 64, 356 64.225, 356 64.500 M 372 91.500 C 372 91.775, 372.225 92, 372.500 92 C 372.775 92, 373 91.775, 373 91.500 C 373 91.225, 372.775 91, 372.500 91 C 372.225 91, 372 91.225, 372 91.500 M 69.532 99.951 C 57.662 107.849, 60.600 115.874, 75.760 116.957 C 82.759 117.457, 86.685 118.265, 89.710 119.827 C 94.680 122.392, 96.319 122.525, 98 120.500 C 99.053 119.231, 98.837 119, 96.590 119 C 93.501 119, 87.293 116.575, 84.946 114.451 C 84.052 113.642, 80.210 112.416, 76.410 111.727 C 64.450 109.559, 68.252 101.006, 81.177 101.002 C 86.379 101, 89.610 103.802, 90.703 109.263 C 91.724 114.370, 93.500 111.612, 93.500 104.917 L 93.500 98.500 83 98.238 C 73.940 98.012, 72.093 98.247, 69.532 99.951 M 403.667 99.667 C 402.642 100.691, 402.876 113, 403.921 113 C 404.427 113, 405.135 111.662, 405.494 110.027 C 406.909 103.584, 413.248 100.796, 421.118 103.153 C 430.207 105.877, 429.843 111.434, 420.525 112.206 C 416.739 112.520, 414.274 113.331, 412.742 114.766 C 409.750 117.570, 405.732 119, 400.852 119 C 396.698 119, 396.048 120.366, 399.242 122.381 C 400.440 123.136, 402.129 122.817, 405.683 121.162 C 408.955 119.639, 413.629 118.659, 420.258 118.108 C 433.878 116.974, 436.986 113.567, 431.903 105.344 C 428.544 99.908, 407.630 95.703, 403.667 99.667 M 154 114.529 C 135.723 117.401, 112.470 123.282, 95 129.451 C 88.473 131.756, 70.365 141.111, 67.205 143.811 C 63.861 146.668, 64.088 146.586, 77 140.266 C 94.169 131.864, 123.232 124.392, 159.261 119.119 C 174.493 116.889, 175.670 116.512, 173.926 114.411 C 172.475 112.663, 165.619 112.704, 154 114.529 M 107 116.500 C 107 116.775, 107.225 117, 107.500 117 C 107.775 117, 108 116.775, 108 116.500 C 108 116.225, 107.775 116, 107.500 116 C 107.225 116, 107 116.225, 107 116.500 M 81 118.500 C 81 118.775, 81.225 119, 81.500 119 C 81.775 119, 82 118.775, 82 118.500 C 82 118.225, 81.775 118, 81.500 118 C 81.225 118, 81 118.225, 81 118.500 M 246.500 119.875 C 242.759 121.551, 248.504 121.887, 290.500 122.449 C 313.050 122.751, 336.675 123.203, 343 123.453 C 358.084 124.051, 355.405 123.432, 334.500 121.489 C 315.185 119.693, 249.590 118.490, 246.500 119.875 M 356.500 125.070 C 352.277 126.335, 326.045 129.146, 324.926 128.454 C 324.416 128.139, 324 128.300, 324 128.812 C 324 129.323, 320.962 130.041, 317.250 130.407 C 309.095 131.211, 307.203 132.094, 309.519 134.015 C 310.801 135.079, 311.794 135.115, 314.360 134.187 C 319.040 132.495, 352.114 127.855, 369.772 126.413 C 374.322 126.042, 378.286 125.347, 378.581 124.869 C 379.283 123.733, 360.391 123.905, 356.500 125.070 M 419 129.148 C 412.529 133.622, 399.747 139.484, 390.628 142.162 C 382.931 144.421, 380.709 146.109, 382.747 148.147 C 383.430 148.830, 387.457 147.816, 395.130 145.031 C 424.219 134.471, 430.621 134.303, 439.269 143.876 C 442.470 147.419, 446 155.708, 446 159.682 C 446 160.407, 446.508 161, 447.128 161 C 451.508 161, 444.104 144.744, 434.910 134.173 C 426.811 124.863, 425.703 124.513, 419 129.148 M 317 134.500 C 317 134.775, 317.225 135, 317.500 135 C 317.775 135, 318 134.775, 318 134.500 C 318 134.225, 317.775 134, 317.500 134 C 317.225 134, 317 134.225, 317 134.500 M 363.115 148.804 C 356.831 151.235, 354.432 155, 359.168 155 C 363.332 155, 374.124 152.278, 375.500 150.881 C 378.728 147.602, 370.005 146.140, 363.115 148.804 M 199.402 190.419 C 152.193 201.204, 153.338 266.961, 200.891 275.979 C 225.834 280.710, 253 264.718, 253 245.304 L 253 241 241.013 241 L 229.027 241 227.637 244.250 C 221.341 258.967, 200.823 258.392, 193.920 243.305 C 183.048 219.546, 212.006 198.500, 226.295 219.776 L 229.132 224 241.066 224 L 253 224 253 220.149 C 253 201.079, 223.753 184.856, 199.402 190.419 M 98.219 192.750 C 92.782 205.991, 97.952 213, 113.156 213 C 127.883 213, 127.532 212.583, 126.566 228.919 C 125.163 252.662, 114.673 262.015, 107.214 246.174 L 105.484 242.500 92.492 242.500 L 79.500 242.500 79.580 246.660 C 80.184 278.220, 134.477 289.154, 149.149 260.670 C 154.251 250.766, 157.847 200.188, 153.965 192.934 C 152.438 190.082, 99.386 189.907, 98.219 192.750 M 291.791 192.722 C 290.928 193.700, 288.639 198.775, 286.705 204 C 284.771 209.225, 278.654 225.720, 273.111 240.656 C 267.568 255.593, 262.913 269.318, 262.766 271.156 L 262.500 274.500 276.074 274.777 L 289.649 275.054 292.355 269.527 L 295.062 264 305.963 264 C 316.394 264, 316.896 264.097, 317.567 266.250 C 317.954 267.488, 318.557 268.725, 318.908 269 C 319.259 269.275, 320.334 270.738, 321.296 272.250 L 323.046 275 336.054 275 C 346.207 275, 349.179 274.696, 349.594 273.617 C 350.177 272.098, 347.135 262.241, 344.621 257.502 C 343.746 255.853, 342.309 252.028, 341.427 249.002 C 340.545 245.976, 338.490 239.900, 336.861 235.500 C 335.231 231.100, 331.442 220.525, 328.440 212 C 320.814 190.338, 322.115 191.561, 306.324 191.222 C 294.940 190.978, 293.169 191.161, 291.791 192.722 M 359.727 191.606 C 359.327 192.006, 359 210.946, 359 233.695 L 359 275.056 372.750 274.778 L 386.500 274.500 386.785 263.015 C 387.155 248.102, 387.748 247.856, 394.089 259.983 C 402.335 275.751, 401.092 275, 418.952 275 L 434 275 433.997 272.250 C 433.995 270.634, 431.108 264.662, 426.997 257.769 C 418.965 244.303, 419.185 245.100, 422.632 241.924 C 436.255 229.378, 431.858 202.926, 414.616 193.702 C 410.407 191.450, 361.741 189.592, 359.727 191.606 M 387 220 L 387 229 393.427 229 C 399.180 229, 400.072 228.723, 401.927 226.365 C 407.404 219.403, 402.290 211, 392.577 211 L 387 211 387 220 M 304.127 232.090 C 300.831 241.849, 301.082 243, 306.500 243 C 308.975 243, 311 242.832, 311 242.626 C 311 242.420, 310.325 240.338, 309.500 238 C 308.675 235.662, 307.993 232.568, 307.985 231.124 C 307.951 225.303, 306.277 225.722, 304.127 232.090" stroke="none" fill="#000000" fill-rule="evenodd"></path></svg></svg></g></svg>