<?xml version="1.0" encoding="UTF-8"?>
<!DOCTYPE svg PUBLIC "-//W3C//DTD SVG 1.1//EN" "http://www.w3.org/Graphics/SVG/1.1/DTD/svg11.dtd">
<svg xmlns="http://www.w3.org/2000/svg" version="1.1" width="512px" height="319px" style="shape-rendering:geometricPrecision; text-rendering:geometricPrecision; image-rendering:optimizeQuality; fill-rule:evenodd; clip-rule:evenodd" xmlns:xlink="http://www.w3.org/1999/xlink">
<g><path style="opacity:0.061" fill="#191919" d="M 278.5,46.5 C 281.976,45.3567 285.642,45.1901 289.5,46C 285.848,46.4986 282.182,46.6653 278.5,46.5 Z"/></g>
<g><path style="opacity:0.029" fill="#141314" d="M 204.5,47.5 C 205.251,46.4265 206.251,46.2599 207.5,47C 206.552,47.4828 205.552,47.6495 204.5,47.5 Z"/></g>
<g><path style="opacity:0.065" fill="#1e1d1d" d="M 293.5,47.5 C 294.251,46.4265 295.251,46.2599 296.5,47C 295.552,47.4828 294.552,47.6495 293.5,47.5 Z"/></g>
<g><path style="opacity:0.004" fill="#080807" d="M 300.5,46.5 C 301.833,47.1667 301.833,47.1667 300.5,46.5 Z"/></g>
<g><path style="opacity:1" fill="#c5c6c6" d="M 235.5,49.5 C 232.518,48.8351 229.352,48.5018 226,48.5C 210.176,49.6994 194.343,50.6994 178.5,51.5C 181.167,50.8333 183.833,50.1667 186.5,49.5C 189.85,49.665 193.183,49.4983 196.5,49C 192.586,48.1034 192.752,47.6034 197,47.5C 205.28,48.5377 213.78,48.371 222.5,47C 220.833,46.6667 219.167,46.3333 217.5,46C 257.944,44.9763 298.944,47.6429 340.5,54C 340.833,54.3333 341.167,54.6667 341.5,55C 325.861,53.4514 310.194,51.7847 294.5,50C 274.836,49.5 255.169,49.3334 235.5,49.5 Z"/></g>
<g><path style="opacity:0.016" fill="#0c0d0c" d="M 310.5,47.5 C 311.833,48.1667 311.833,48.1667 310.5,47.5 Z"/></g>
<g><path style="opacity:0.009" fill="#0b0a0b" d="M 186.5,49.5 C 185.127,49.6567 183.793,49.49 182.5,49C 184.066,48.235 185.399,48.4017 186.5,49.5 Z"/></g>
<g><path style="opacity:1" fill="#f9f9f9" d="M 235.5,49.5 C 204.444,49.2526 174.777,55.4193 146.5,68C 127.807,77.5108 117.807,92.6775 116.5,113.5C 111.787,114.18 107.12,114.18 102.5,113.5C 107.62,103.793 111.954,93.7935 115.5,83.5C 116.674,82.4863 117.34,81.153 117.5,79.5C 119.293,77.5739 120.293,75.2406 120.5,72.5C 123.054,65.9471 127.387,60.9471 133.5,57.5C 136.216,57.3215 138.883,56.8215 141.5,56C 139.405,55.4444 139.238,54.9444 141,54.5C 143.12,55.4589 145.287,55.6256 147.5,55C 146.304,54.3457 146.304,53.8457 147.5,53.5C 148.939,54.0634 150.439,54.3968 152,54.5C 160.764,52.8736 169.598,51.8736 178.5,51.5C 194.343,50.6994 210.176,49.6994 226,48.5C 229.352,48.5018 232.518,48.8351 235.5,49.5 Z"/></g>
<g><path style="opacity:0.024" fill="#090a09" d="M 316.5,48.5 C 317.833,49.1667 317.833,49.1667 316.5,48.5 Z"/></g>
<g><path style="opacity:0.012" fill="#0d0d0e" d="M 175.5,50.5 C 175.897,49.475 176.563,49.3083 177.5,50C 176.906,50.4643 176.239,50.631 175.5,50.5 Z"/></g>
<g><path style="opacity:0.008" fill="#050605" d="M 323.5,49.5 C 324.833,50.1667 324.833,50.1667 323.5,49.5 Z"/></g>
<g><path style="opacity:0.004" fill="#070807" d="M 167.5,51.5 C 167.897,50.475 168.563,50.3083 169.5,51C 168.906,51.4643 168.239,51.631 167.5,51.5 Z"/></g>
<g><path style="opacity:0.016" fill="#040504" d="M 330.5,50.5 C 331.833,51.1667 331.833,51.1667 330.5,50.5 Z"/></g>
<g><path style="opacity:0.004" fill="#0b0c0b" d="M 342.5,52.5 C 343.833,53.1667 343.833,53.1667 342.5,52.5 Z"/></g>
<g><path style="opacity:0.004" fill="#000000" d="M 346.5,53.5 C 347.833,54.1667 347.833,54.1667 346.5,53.5 Z"/></g>
<g><path style="opacity:0.027" fill="#050403" d="M 135.5,55.5 C 136.833,56.1667 136.833,56.1667 135.5,55.5 Z"/></g>
<g><path style="opacity:0.035" fill="#0c0d0c" d="M 133.5,57.5 C 132.833,56.1667 132.833,56.1667 133.5,57.5 Z"/></g>
<g><path style="opacity:0.008" fill="#000000" d="M 184.5,56.5 C 185.833,57.1667 185.833,57.1667 184.5,56.5 Z"/></g>
<g><path style="opacity:0.02" fill="#000000" d="M 175.5,59.5 C 175.897,58.475 176.563,58.3083 177.5,59C 176.906,59.4643 176.239,59.631 175.5,59.5 Z"/></g>
<g><path style="opacity:0.012" fill="#020302" d="M 172.5,59.5 C 173.833,60.1667 173.833,60.1667 172.5,59.5 Z"/></g>
<g><path style="opacity:0.024" fill="#070707" d="M 251.5,61.5 C 259.656,60.3434 267.99,60.1768 276.5,61C 268.173,61.4997 259.84,61.6664 251.5,61.5 Z"/></g>
<g><path style="opacity:1" fill="#f3f3f4" d="M 235.5,56.5 C 278.542,55.5868 321.209,59.0868 363.5,67C 369.736,72.239 374.903,78.4057 379,85.5C 383.589,95.0895 388.089,104.756 392.5,114.5C 383.158,114.519 373.825,114.853 364.5,115.5C 363.692,115.192 363.025,114.692 362.5,114C 323.847,112.456 285.18,111.289 246.5,110.5C 281.829,109.667 317.162,109.167 352.5,109C 378.535,105.177 381.535,94.5107 361.5,77C 354.558,73.0199 347.224,70.0199 339.5,68C 328.853,65.2613 313.853,62.9279 294.5,61C 269.515,59.6672 244.515,58.6672 219.5,58C 225.016,57.8267 230.349,57.3267 235.5,56.5 Z"/></g>
<g><path style="opacity:0.024" fill="#080808" d="M 284.5,62.5 C 286.628,61.3709 288.961,61.2042 291.5,62C 289.19,62.4966 286.857,62.6633 284.5,62.5 Z"/></g>
<g><path style="opacity:0.047" fill="#0e0f0e" d="M 302.5,62.5 C 303.833,63.1667 303.833,63.1667 302.5,62.5 Z"/></g>
<g><path style="opacity:0.025" fill="#080706" d="M 355.5,64.5 C 356.251,63.4265 357.251,63.2599 358.5,64C 357.552,64.4828 356.552,64.6495 355.5,64.5 Z"/></g>
<g><path style="opacity:0.031" fill="#0d0e0f" d="M 157.5,64.5 C 158.833,65.1667 158.833,65.1667 157.5,64.5 Z"/></g>
<g><path style="opacity:0.063" fill="#454647" d="M 332.5,68.5 C 332.897,67.475 333.563,67.3083 334.5,68C 333.906,68.4643 333.239,68.631 332.5,68.5 Z"/></g>
<g><path style="opacity:0.071" fill="#474849" d="M 336.5,69.5 C 336.897,68.475 337.563,68.3083 338.5,69C 337.906,69.4643 337.239,69.631 336.5,69.5 Z"/></g>
<g><path style="opacity:0.059" fill="#494a4a" d="M 343.5,71.5 C 343.897,70.475 344.563,70.3083 345.5,71C 344.906,71.4643 344.239,71.631 343.5,71.5 Z"/></g>
<g><path style="opacity:0.008" fill="#16171a" d="M 120.5,72.5 C 119.833,71.1667 119.833,71.1667 120.5,72.5 Z"/></g>
<g><path style="opacity:0.004" fill="#0b0c0c" d="M 346.5,71.5 C 347.833,72.1667 347.833,72.1667 346.5,71.5 Z"/></g>
<g><path style="opacity:0.004" fill="#070808" d="M 351.5,73.5 C 352.833,74.1667 352.833,74.1667 351.5,73.5 Z"/></g>
<g><path style="opacity:0.004" fill="#080909" d="M 355.5,75.5 C 356.833,76.1667 356.833,76.1667 355.5,75.5 Z"/></g>
<g><path style="opacity:0.012" fill="#1e2026" d="M 117.5,79.5 C 116.833,78.1667 116.833,78.1667 117.5,79.5 Z"/></g>
<g><path style="opacity:0.004" fill="#121212" d="M 132.5,79.5 C 133.833,80.1667 133.833,80.1667 132.5,79.5 Z"/></g>
<g><path style="opacity:0.004" fill="#121213" d="M 130.5,81.5 C 131.833,82.1667 131.833,82.1667 130.5,81.5 Z"/></g>
<g><path style="opacity:0.008" fill="#14151b" d="M 115.5,83.5 C 114.833,82.1667 114.833,82.1667 115.5,83.5 Z"/></g>
<g><path style="opacity:0.004" fill="#121213" d="M 130.5,82.5 C 129.833,83.1667 129.833,83.1667 130.5,82.5 Z"/></g>
<g><path style="opacity:0.004" fill="#090b10" d="M 113.5,84.5 C 114.833,85.1667 114.833,85.1667 113.5,84.5 Z"/></g>
<g><path style="opacity:0.004" fill="#141414" d="M 125.5,87.5 C 126.833,88.1667 126.833,88.1667 125.5,87.5 Z"/></g>
<g><path style="opacity:0.004" fill="#181818" d="M 123.5,90.5 C 124.833,91.1667 124.833,91.1667 123.5,90.5 Z"/></g>
<g><path style="opacity:0.098" fill="#050606" d="M 371.5,90.5 C 372.833,91.1667 372.833,91.1667 371.5,90.5 Z"/></g>
<g><path style="opacity:0.004" fill="#111211" d="M 122.5,92.5 C 123.833,93.1667 123.833,93.1667 122.5,92.5 Z"/></g>
<g><path style="opacity:0.004" fill="#040505" d="M 384.5,92.5 C 385.833,93.1667 385.833,93.1667 384.5,92.5 Z"/></g>
<g><path style="opacity:0.031" fill="#000000" d="M 372.5,93.5 C 373.833,94.1667 373.833,94.1667 372.5,93.5 Z"/></g>
<g><path style="opacity:0.088" fill="#2f2f2f" d="M 75.5,96.5 C 80.6503,95.3493 85.9836,95.1826 91.5,96C 86.1771,96.4994 80.8437,96.666 75.5,96.5 Z"/></g>
<g><path style="opacity:0.004" fill="#191a19" d="M 120.5,96.5 C 121.833,97.1667 121.833,97.1667 120.5,96.5 Z"/></g>
<g><path style="opacity:0.004" fill="#070707" d="M 386.5,96.5 C 387.833,97.1667 387.833,97.1667 386.5,96.5 Z"/></g>
<g><path style="opacity:0.004" fill="#080909" d="M 401.5,96.5 C 402.833,97.1667 402.833,97.1667 401.5,96.5 Z"/></g>
<g><path style="opacity:0.024" fill="#0d0d0e" d="M 425.5,97.5 C 426.833,98.1667 426.833,98.1667 425.5,97.5 Z"/></g>
<g><path style="opacity:1" fill="#f5f5f5" d="M 71.5,97.5 C 78.5079,97.3337 85.5079,97.5004 92.5,98C 93.6295,102.079 93.7961,106.245 93,110.5C 92.586,110.957 92.086,111.291 91.5,111.5C 88.2737,100.067 81.2737,97.2332 70.5,103C 68.6041,104.808 68.1041,106.975 69,109.5C 72.7164,110.704 76.5497,111.538 80.5,112C 85.812,115.985 91.812,118.318 98.5,119C 97.541,120.464 96.2077,121.297 94.5,121.5C 90.8383,120.003 87.1717,118.503 83.5,117C 77.1031,116.818 70.7697,116.152 64.5,115C 62.4963,112.159 61.9963,108.993 63,105.5C 65.1565,102.024 67.9898,99.3575 71.5,97.5 Z"/></g>
<g><path style="opacity:0.012" fill="#191b24" d="M 107.5,98.5 C 108.833,99.1667 108.833,99.1667 107.5,98.5 Z"/></g>
<g><path style="opacity:0.004" fill="#070807" d="M 387.5,98.5 C 388.833,99.1667 388.833,99.1667 387.5,98.5 Z"/></g>
<g><path style="opacity:0.024" fill="#1c1d1c" d="M 119.5,99.5 C 120.833,100.167 120.833,100.167 119.5,99.5 Z"/></g>
<g><path style="opacity:0.006" fill="#000000" d="M 399.5,99.5 C 400.634,101.966 400.801,104.633 400,107.5C 399.503,104.854 399.336,102.187 399.5,99.5 Z"/></g>
<g><path style="opacity:1" fill="#f4f4f4" d="M 403.5,98.5 C 410.508,98.3337 417.508,98.5004 424.5,99C 430.74,101.892 433.573,106.726 433,113.5C 431.681,115.487 429.848,116.654 427.5,117C 418.712,116.645 410.378,118.311 402.5,122C 399.741,122.977 397.741,122.144 396.5,119.5C 400.532,118.775 404.532,117.942 408.5,117C 413.189,112.436 418.855,110.436 425.5,111C 428.319,108.28 427.986,105.947 424.5,104C 414.03,98.5742 407.03,101.408 403.5,112.5C 402.225,107.784 402.225,103.117 403.5,98.5 Z"/></g>
<g><path style="opacity:0.082" fill="#262627" d="M 94.5,98.5 C 95.6225,100.288 95.7891,102.288 95,104.5C 94.5045,102.527 94.3379,100.527 94.5,98.5 Z"/></g>
<g><path style="opacity:0.004" fill="#0b0d16" d="M 106.5,100.5 C 107.833,101.167 107.833,101.167 106.5,100.5 Z"/></g>
<g><path style="opacity:0.039" fill="#0d0f10" d="M 82.5,101.5 C 83.8333,102.167 83.8333,102.167 82.5,101.5 Z"/></g>
<g><path style="opacity:0.031" fill="#090b0d" d="M 74.5,102.5 C 75.8333,103.167 75.8333,103.167 74.5,102.5 Z"/></g>
<g><path style="opacity:0.004" fill="#06070e" d="M 105.5,102.5 C 106.833,103.167 106.833,103.167 105.5,102.5 Z"/></g>
<g><path style="opacity:0.043" fill="#010202" d="M 104.5,104.5 C 105.833,105.167 105.833,105.167 104.5,104.5 Z"/></g>
<g><path style="opacity:0.067" fill="#111110" d="M 364.5,104.5 C 365.833,105.167 365.833,105.167 364.5,104.5 Z"/></g>
<g><path style="opacity:0.066" fill="#272727" d="M 117.5,105.5 C 118.598,106.601 118.765,107.934 118,109.5C 117.51,108.207 117.343,106.873 117.5,105.5 Z"/></g>
<g><path style="opacity:0.02" fill="#060606" d="M 359.5,106.5 C 360.251,105.427 361.251,105.26 362.5,106C 361.552,106.483 360.552,106.649 359.5,106.5 Z"/></g>
<g><path style="opacity:0.063" fill="#090b0b" d="M 87.5,106.5 C 88.8333,107.167 88.8333,107.167 87.5,106.5 Z"/></g>
<g><path style="opacity:0.022" fill="#0b0a0a" d="M 354.5,107.5 C 355.251,106.427 356.251,106.26 357.5,107C 356.552,107.483 355.552,107.649 354.5,107.5 Z"/></g>
<g><path style="opacity:0.008" fill="#000000" d="M 274.5,108.5 C 282.99,107.343 291.657,107.176 300.5,108C 291.84,108.5 283.173,108.666 274.5,108.5 Z"/></g>
<g><path style="opacity:0.014" fill="#0a0909" d="M 346.5,108.5 C 347.601,107.402 348.934,107.235 350.5,108C 349.207,108.49 347.873,108.657 346.5,108.5 Z"/></g>
<g><path style="opacity:0.043" fill="#0a0b0a" d="M 391.5,108.5 C 392.833,109.167 392.833,109.167 391.5,108.5 Z"/></g>
<g><path style="opacity:0.031" fill="#0c0c0c" d="M 434.5,108.5 C 435.598,109.601 435.765,110.934 435,112.5C 434.51,111.207 434.343,109.873 434.5,108.5 Z"/></g>
<g><path style="opacity:0.043" fill="#1b1b1a" d="M 117.5,110.5 C 118.573,111.251 118.74,112.251 118,113.5C 117.517,112.552 117.351,111.552 117.5,110.5 Z"/></g>
<g><path style="opacity:0.008" fill="#797877" d="M 170.5,110.5 C 171.833,111.167 171.833,111.167 170.5,110.5 Z"/></g>
<g><path style="opacity:0.027" fill="#000000" d="M 397.5,110.5 C 398.833,111.167 398.833,111.167 397.5,110.5 Z"/></g>
<g><path style="opacity:0.004" fill="#292929" d="M 151.5,112.5 C 152.833,113.167 152.833,113.167 151.5,112.5 Z"/></g>
<g><path style="opacity:0.994" fill="#f2f3f3" d="M 82.5,133.5 C 111.283,121.509 141.283,114.676 172.5,113C 174.948,115.3 174.281,116.633 170.5,117C 140.034,120.226 110.367,126.893 81.5,137C 75.8102,140.016 70.1435,142.683 64.5,145C 65.1667,144.333 65.8333,143.667 66.5,143C 72.0618,140.059 77.3951,136.892 82.5,133.5 Z"/></g>
<g><path style="opacity:0.007" fill="#020202" d="M 395.5,113.5 C 395.663,115.857 395.497,118.19 395,120.5C 394.79,118.942 394.29,117.609 393.5,116.5C 393.343,115.127 393.51,113.793 394,112.5C 394.383,113.056 394.883,113.389 395.5,113.5 Z"/></g>
<g><path style="opacity:0.024" fill="#000000" d="M 395.5,112.5 C 396.833,113.167 396.833,113.167 395.5,112.5 Z"/></g>
<g><path style="opacity:0.004" fill="#0b0b0b" d="M 100.5,113.5 C 101.525,113.897 101.692,114.563 101,115.5C 100.536,114.906 100.369,114.239 100.5,113.5 Z"/></g>
<g><path style="opacity:0.012" fill="#020302" d="M 337.5,114.5 C 339.966,113.366 342.633,113.199 345.5,114C 342.854,114.497 340.187,114.664 337.5,114.5 Z"/></g>
<g><path style="opacity:0.007" fill="#080908" d="M 111.5,115.5 C 112.946,114.387 114.613,114.22 116.5,115C 114.866,115.494 113.199,115.66 111.5,115.5 Z"/></g>
<g><path style="opacity:0.024" fill="#080908" d="M 357.5,115.5 C 358.601,114.402 359.934,114.235 361.5,115C 360.207,115.49 358.873,115.657 357.5,115.5 Z"/></g>
<g><path style="opacity:0.063" fill="#000000" d="M 397.5,114.5 C 398.833,115.167 398.833,115.167 397.5,114.5 Z"/></g>
<g><path style="opacity:0.008" fill="#0a0a0b" d="M 106.5,116.5 C 107.601,115.402 108.934,115.235 110.5,116C 109.207,116.49 107.873,116.657 106.5,116.5 Z"/></g>
<g><path style="opacity:0.029" fill="#09090a" d="M 366.5,116.5 C 367.946,115.387 369.613,115.22 371.5,116C 369.866,116.494 368.199,116.66 366.5,116.5 Z"/></g>
<g><path style="opacity:0.039" fill="#0e0f0e" d="M 66.5,116.5 C 67.8333,117.167 67.8333,117.167 66.5,116.5 Z"/></g>
<g><path style="opacity:0.004" fill="#000000" d="M 96.5,116.5 C 97.8333,117.167 97.8333,117.167 96.5,116.5 Z"/></g>
<g><path style="opacity:0.008" fill="#0a0a0a" d="M 102.5,117.5 C 103.251,116.427 104.251,116.26 105.5,117C 104.552,117.483 103.552,117.649 102.5,117.5 Z"/></g>
<g><path style="opacity:0.036" fill="#090909" d="M 393.5,116.5 C 387.013,117.654 380.346,117.821 373.5,117C 380.158,116.5 386.825,116.334 393.5,116.5 Z"/></g>
<g><path style="opacity:0.014" fill="#0d0e0f" d="M 70.5,118.5 C 70.8966,117.475 71.5632,117.308 72.5,118C 71.9056,118.464 71.2389,118.631 70.5,118.5 Z"/></g>
<g><path style="opacity:0.056" fill="#131415" d="M 74.5,118.5 C 76.6282,117.371 78.9615,117.204 81.5,118C 79.1902,118.497 76.8568,118.663 74.5,118.5 Z"/></g>
<g><path style="opacity:0.024" fill="#5d5e5d" d="M 245.5,117.5 C 246.833,118.167 246.833,118.167 245.5,117.5 Z"/></g>
<g><path style="opacity:0.012" fill="#080909" d="M 429.5,117.5 C 430.833,118.167 430.833,118.167 429.5,117.5 Z"/></g>
<g><path style="opacity:0.004" fill="#111213" d="M 163.5,119.5 C 164.946,118.387 166.613,118.22 168.5,119C 166.866,119.494 165.199,119.66 163.5,119.5 Z"/></g>
<g><path style="opacity:0.02" fill="#131416" d="M 157.5,120.5 C 158.251,119.427 159.251,119.26 160.5,120C 159.552,120.483 158.552,120.649 157.5,120.5 Z"/></g>
<g><path style="opacity:0.024" fill="#111111" d="M 343.5,120.5 C 343.897,119.475 344.563,119.308 345.5,120C 344.906,120.464 344.239,120.631 343.5,120.5 Z"/></g>
<g><path style="opacity:0.004" fill="#131314" d="M 98.5,120.5 C 99.8333,121.167 99.8333,121.167 98.5,120.5 Z"/></g>
<g><path style="opacity:0.004" fill="#16171a" d="M 151.5,121.5 C 151.897,120.475 152.563,120.308 153.5,121C 152.906,121.464 152.239,121.631 151.5,121.5 Z"/></g>
<g><path style="opacity:1" fill="#e9eaea" d="M 245.5,118.5 C 281.354,117.716 317.354,119.216 353.5,123C 317.614,122.195 281.78,121.362 246,120.5C 245.536,121.094 245.369,121.761 245.5,122.5C 243.219,120.968 243.219,119.634 245.5,118.5 Z"/></g>
<g><path style="opacity:0.027" fill="#000000" d="M 408.5,121.5 C 409.251,120.427 410.251,120.26 411.5,121C 410.552,121.483 409.552,121.649 408.5,121.5 Z"/></g>
<g><path style="opacity:0.027" fill="#1a1b1e" d="M 144.5,122.5 C 145.251,121.427 146.251,121.26 147.5,122C 146.552,122.483 145.552,122.649 144.5,122.5 Z"/></g>
<g><path style="opacity:0.004" fill="#080908" d="M 375.5,121.5 C 376.833,122.167 376.833,122.167 375.5,121.5 Z"/></g>
<g><path style="opacity:0.004" fill="#111211" d="M 381.5,121.5 C 382.833,122.167 382.833,122.167 381.5,121.5 Z"/></g>
<g><path style="opacity:0.004" fill="#050606" d="M 396.5,122.5 C 395.833,121.167 395.833,121.167 396.5,122.5 Z"/></g>
<g><path style="opacity:0.012" fill="#000000" d="M 408.5,121.5 C 408.103,122.525 407.437,122.692 406.5,122C 407.094,121.536 407.761,121.369 408.5,121.5 Z"/></g>
<g><path style="opacity:0.016" fill="#121211" d="M 107.5,122.5 C 108.833,123.167 108.833,123.167 107.5,122.5 Z"/></g>
<g><path style="opacity:0.039" fill="#1d2025" d="M 138.5,123.5 C 139.251,122.427 140.251,122.26 141.5,123C 140.552,123.483 139.552,123.649 138.5,123.5 Z"/></g>
<g><path style="opacity:0.012" fill="#2d2f2f" d="M 245.5,122.5 C 246.833,123.167 246.833,123.167 245.5,122.5 Z"/></g>
<g><path style="opacity:0.004" fill="#050606" d="M 396.5,122.5 C 397.833,123.167 397.833,123.167 396.5,122.5 Z"/></g>
<g><path style="opacity:0.008" fill="#161a1f" d="M 134.5,124.5 C 134.897,123.475 135.563,123.308 136.5,124C 135.906,124.464 135.239,124.631 134.5,124.5 Z"/></g>
<g><path style="opacity:0.035" fill="#141516" d="M 398.5,123.5 C 399.833,124.167 399.833,124.167 398.5,123.5 Z"/></g>
<g><path style="opacity:0.082" fill="#262728" d="M 400.5,123.5 C 401.833,124.167 401.833,124.167 400.5,123.5 Z"/></g>
<g><path style="opacity:0.008" fill="#000000" d="M 402.5,123.5 C 403.833,124.167 403.833,124.167 402.5,123.5 Z"/></g>
<g><path style="opacity:0.039" fill="#1c1c1c" d="M 422.5,124.5 C 423.946,123.387 425.613,123.22 427.5,124C 425.866,124.494 424.199,124.66 422.5,124.5 Z"/></g>
<g><path style="opacity:0.008" fill="#16191c" d="M 129.5,124.5 C 130.833,125.167 130.833,125.167 129.5,124.5 Z"/></g>
<g><path style="opacity:0.004" fill="#050505" d="M 428.5,124.5 C 429.833,125.167 429.833,125.167 428.5,124.5 Z"/></g>
<g><path style="opacity:0.008" fill="#15181b" d="M 124.5,125.5 C 125.833,126.167 125.833,126.167 124.5,125.5 Z"/></g>
<g><path style="opacity:0.055" fill="#171718" d="M 332.5,126.5 C 332.897,125.475 333.563,125.308 334.5,126C 333.906,126.464 333.239,126.631 332.5,126.5 Z"/></g>
<g><path style="opacity:0.024" fill="#1c1d1c" d="M 381.5,125.5 C 382.833,126.167 382.833,126.167 381.5,125.5 Z"/></g>
<g><path style="opacity:0.004" fill="#070707" d="M 418.5,125.5 C 419.833,126.167 419.833,126.167 418.5,125.5 Z"/></g>
<g><path style="opacity:0.024" fill="#131413" d="M 95.5,126.5 C 96.8333,127.167 96.8333,127.167 95.5,126.5 Z"/></g>
<g><path style="opacity:0.027" fill="#161516" d="M 377.5,127.5 C 378.251,126.427 379.251,126.26 380.5,127C 379.552,127.483 378.552,127.649 377.5,127.5 Z"/></g>
<g><path style="opacity:0.976" fill="#f4f4f4" d="M 422.5,125.5 C 424.199,125.34 425.866,125.506 427.5,126C 435.631,133.123 441.798,141.623 446,151.5C 447.31,154.503 447.476,157.503 446.5,160.5C 445.246,149.808 439.913,141.974 430.5,137C 426.167,136.333 421.833,136.333 417.5,137C 407.52,140.32 397.52,143.653 387.5,147C 385.42,149.928 383.253,150.095 381,147.5C 380.316,146.216 380.483,145.049 381.5,144C 396.735,140.991 410.401,134.824 422.5,125.5 Z"/></g>
<g><path style="opacity:0.004" fill="#0c0c0b" d="M 315.5,127.5 C 316.833,128.167 316.833,128.167 315.5,127.5 Z"/></g>
<g><path style="opacity:0.024" fill="#141414" d="M 310.5,129.5 C 310.897,128.475 311.563,128.308 312.5,129C 311.906,129.464 311.239,129.631 310.5,129.5 Z"/></g>
<g><path style="opacity:1" fill="#e1e2e3" d="M 358.5,123.5 C 365.175,123.334 371.842,123.5 378.5,124C 361.301,126.599 343.968,128.932 326.5,131C 321.35,131.596 316.35,132.763 311.5,134.5C 309.792,134.297 308.459,133.464 307.5,132C 312.688,130.357 318.022,129.357 323.5,129C 321.833,128.667 320.167,128.333 318.5,128C 321.359,127.447 324.192,127.614 327,128.5C 337.774,127.661 348.274,125.995 358.5,123.5 Z"/></g>
<g><path style="opacity:0.009" fill="#000000" d="M 354.5,129.5 C 355.601,128.402 356.934,128.235 358.5,129C 357.207,129.49 355.873,129.657 354.5,129.5 Z"/></g>
<g><path style="opacity:0.016" fill="#f1f2f0" d="M 305.5,131.5 C 306.833,132.167 306.833,132.167 305.5,131.5 Z"/></g>
<g><path style="opacity:0.035" fill="#020302" d="M 82.5,133.5 C 81.8333,132.167 81.8333,132.167 82.5,133.5 Z"/></g>
<g><path style="opacity:0.157" fill="#7f8083" d="M 316.5,133.5 C 317.833,134.167 317.833,134.167 316.5,133.5 Z"/></g>
<g><path style="opacity:0.027" fill="#000000" d="M 318.5,133.5 C 319.833,134.167 319.833,134.167 318.5,133.5 Z"/></g>
<g><path style="opacity:0.008" fill="#101212" d="M 314.5,134.5 C 315.833,135.167 315.833,135.167 314.5,134.5 Z"/></g>
<g><path style="opacity:0.012" fill="#000000" d="M 89.5,135.5 C 90.8333,136.167 90.8333,136.167 89.5,135.5 Z"/></g>
<g><path style="opacity:0.008" fill="#5d5c5f" d="M 310.5,136.5 C 310.897,135.475 311.563,135.308 312.5,136C 311.906,136.464 311.239,136.631 310.5,136.5 Z"/></g>
<g><path style="opacity:0.012" fill="#242322" d="M 396.5,137.5 C 397.833,138.167 397.833,138.167 396.5,137.5 Z"/></g>
<g><path style="opacity:0.016" fill="#000000" d="M 419.5,138.5 C 420.946,137.387 422.613,137.22 424.5,138C 422.866,138.494 421.199,138.66 419.5,138.5 Z"/></g>
<g><path style="opacity:0.02" fill="#000000" d="M 81.5,138.5 C 82.8333,139.167 82.8333,139.167 81.5,138.5 Z"/></g>
<g><path style="opacity:0.012" fill="#282827" d="M 393.5,138.5 C 394.833,139.167 394.833,139.167 393.5,138.5 Z"/></g>
<g><path style="opacity:0.027" fill="#000000" d="M 415.5,138.5 C 416.833,139.167 416.833,139.167 415.5,138.5 Z"/></g>
<g><path style="opacity:0.004" fill="#050505" d="M 440.5,138.5 C 441.833,139.167 441.833,139.167 440.5,138.5 Z"/></g>
<g><path style="opacity:0.035" fill="#020302" d="M 411.5,139.5 C 412.833,140.167 412.833,140.167 411.5,139.5 Z"/></g>
<g><path style="opacity:0.004" fill="#060707" d="M 403.5,142.5 C 404.833,143.167 404.833,143.167 403.5,142.5 Z"/></g>
<g><path style="opacity:0.004" fill="#060808" d="M 400.5,143.5 C 401.833,144.167 401.833,144.167 400.5,143.5 Z"/></g>
<g><path style="opacity:0.004" fill="#090a0b" d="M 397.5,144.5 C 398.833,145.167 398.833,145.167 397.5,144.5 Z"/></g>
<g><path style="opacity:0.683" fill="#fafafa" d="M 356.5,155.5 C 355.711,155.217 355.044,154.717 354.5,154C 358.887,147.865 364.887,145.199 372.5,146C 375.412,146.845 376.412,148.512 375.5,151C 369.11,152.84 362.776,154.34 356.5,155.5 Z"/></g>
<g><path style="opacity:0.055" fill="#333233" d="M 54.5,149.5 C 55.525,149.897 55.6917,150.563 55,151.5C 54.5357,150.906 54.369,150.239 54.5,149.5 Z"/></g>
<g><path style="opacity:0.004" fill="#1c1f23" d="M 372.5,152.5 C 373.833,153.167 373.833,153.167 372.5,152.5 Z"/></g>
<g><path style="opacity:0.016" fill="#181c20" d="M 365.5,154.5 C 366.833,155.167 366.833,155.167 365.5,154.5 Z"/></g>
<g><path style="opacity:0.012" fill="#3e4248" d="M 356.5,155.5 C 357.873,155.343 359.207,155.51 360.5,156C 358.934,156.765 357.601,156.598 356.5,155.5 Z"/></g>
<g><path style="opacity:0.004" fill="#000000" d="M 448.5,157.5 C 449.833,158.167 449.833,158.167 448.5,157.5 Z"/></g>
<g><path style="opacity:0.027" fill="#020102" d="M 154.5,193.5 C 154.167,193.5 153.833,193.5 153.5,193.5C 153.047,192.542 152.381,191.708 151.5,191C 134.17,190.5 116.837,190.333 99.5,190.5C 99.9175,189.778 100.584,189.278 101.5,189C 117.833,188.333 134.167,188.333 150.5,189C 152.751,189.748 154.084,191.248 154.5,193.5 Z"/></g>
<g><path style="opacity:0.91" fill="#aeb0b8" d="M 199.5,189.5 C 199.833,189.5 200.167,189.5 200.5,189.5C 207.022,189.177 213.355,189.51 219.5,190.5C 212.132,190.317 204.799,190.65 197.5,191.5C 198.167,190.833 198.833,190.167 199.5,189.5 Z"/></g>
<g><path style="opacity:1" fill="#fafbfc" d="M 219.5,190.5 C 229.212,192.511 237.546,197.178 244.5,204.5C 244.557,205.609 244.89,206.609 245.5,207.5C 247.193,212.928 249.193,218.261 251.5,223.5C 243.826,223.666 236.159,223.5 228.5,223C 222.412,210.624 213.078,207.291 200.5,213C 196.877,216.449 193.877,220.283 191.5,224.5C 189.953,226.807 189.287,229.473 189.5,232.5C 189.667,234.5 189.833,236.5 190,238.5C 190.377,239.942 191.21,240.942 192.5,241.5C 192.5,241.833 192.5,242.167 192.5,242.5C 192.427,244.027 193.094,245.027 194.5,245.5C 201.361,254.504 210.028,256.67 220.5,252C 224.211,249.145 226.877,245.645 228.5,241.5C 235.841,241.334 243.174,241.5 250.5,242C 249.325,246.864 247.325,251.364 244.5,255.5C 245.127,256.417 245.461,257.417 245.5,258.5C 242.341,263.08 238.341,266.747 233.5,269.5C 228.373,272.656 222.706,274.656 216.5,275.5C 208.36,275.885 200.36,275.219 192.5,273.5C 190.109,271.638 187.442,270.304 184.5,269.5C 183.415,267.413 181.749,266.08 179.5,265.5C 177.588,263.343 175.921,261.009 174.5,258.5C 173.945,252.216 172.445,246.216 170,240.5C 169.137,232.436 169.47,224.436 171,216.5C 171.878,213.785 173.378,211.451 175.5,209.5C 174.757,208.818 174.091,208.151 173.5,207.5C 175.933,203.232 179.266,199.732 183.5,197C 188.076,194.876 192.743,193.043 197.5,191.5C 204.799,190.65 212.132,190.317 219.5,190.5 Z"/></g>
<g><path style="opacity:0.626" fill="#757478" d="M 321.5,194.5 C 320.833,194.167 320.167,193.833 319.5,193.5C 319.389,192.883 319.056,192.383 318.5,192C 309.657,191.176 300.99,191.343 292.5,192.5C 291.833,192.833 291.167,193.167 290.5,193.5C 290.414,192.504 290.748,191.671 291.5,191C 300.833,190.333 310.167,190.333 319.5,191C 320.823,191.816 321.489,192.983 321.5,194.5 Z"/></g>
<g><path style="opacity:0.627" fill="#868789" d="M 359.5,191.5 C 375.995,190.338 392.662,190.172 409.5,191C 411.86,192.18 414.193,193.347 416.5,194.5C 416.5,194.833 416.5,195.167 416.5,195.5C 412.954,194.041 409.288,192.874 405.5,192C 391.504,191.5 377.504,191.333 363.5,191.5C 362.167,191.5 360.833,191.5 359.5,191.5 Z"/></g>
<g><path style="opacity:0.067" fill="#332b36" d="M 247.5,206.5 C 246.5,205.833 245.5,205.167 244.5,204.5C 237.546,197.178 229.212,192.511 219.5,190.5C 213.355,189.51 207.022,189.177 200.5,189.5C 202.139,187.361 204.139,187.027 206.5,188.5C 208.187,188.24 209.687,187.573 211,186.5C 217.328,188.029 223.828,189.862 230.5,192C 237.839,194.984 243.506,199.818 247.5,206.5 Z"/></g>
<g><path style="opacity:0.999" fill="#faf9fa" d="M 99.5,190.5 C 116.837,190.333 134.17,190.5 151.5,191C 152.381,191.708 153.047,192.542 153.5,193.5C 153.789,209.868 153.456,226.202 152.5,242.5C 151.732,241.737 151.232,240.737 151,239.5C 148.786,247.969 146.286,256.303 143.5,264.5C 142.516,266.48 141.183,268.147 139.5,269.5C 137.181,269.992 135.181,270.992 133.5,272.5C 132.791,273.404 131.791,273.737 130.5,273.5C 120.829,274.8 111.162,274.8 101.5,273.5C 99.1547,271.669 96.488,270.502 93.5,270C 92.6195,269.292 91.9528,268.458 91.5,267.5C 91.369,266.761 91.5357,266.094 92,265.5C 92.7175,266.451 93.5509,266.617 94.5,266C 93.3118,262.456 91.4784,259.29 89,256.5C 88.1557,252.789 87.1557,249.123 86,245.5C 84.2111,243.771 82.0444,243.104 79.5,243.5C 80.5,242.833 81.5,242.167 82.5,241.5C 89.5,241.5 96.5,241.5 103.5,241.5C 105.596,249.459 110.596,253.292 118.5,253C 121,251.833 122.833,250 124,247.5C 126.016,242.012 126.849,236.345 126.5,230.5C 126.5,224.5 126.5,218.5 126.5,212.5C 117.676,211.67 108.676,211.17 99.5,211C 97.9527,207.902 97.2861,204.569 97.5,201C 97.3076,197.271 97.9743,193.771 99.5,190.5 Z"/></g>
<g><path style="opacity:1" fill="#fcfdfe" d="M 319.5,193.5 C 319.564,197.22 320.064,200.886 321,204.5C 324.661,213.823 328.327,223.157 332,232.5C 332.671,233.252 333.504,233.586 334.5,233.5C 336.396,237.297 337.73,241.297 338.5,245.5C 338.337,247.857 338.503,250.19 339,252.5C 341.395,258.352 343.395,264.352 345,270.5C 345.77,271.598 346.603,271.598 347.5,270.5C 347.5,271.5 347.5,272.5 347.5,273.5C 339.167,273.5 330.833,273.5 322.5,273.5C 320.926,272.016 319.593,270.349 318.5,268.5C 318.739,266.533 318.406,264.699 317.5,263C 309.5,262.333 301.5,262.333 293.5,263C 292.009,265.308 291.009,267.808 290.5,270.5C 290.443,271.609 290.11,272.609 289.5,273.5C 280.833,273.5 272.167,273.5 263.5,273.5C 264.531,272.751 265.698,272.085 267,271.5C 267.28,263.998 269.447,257.164 273.5,251C 279.221,231.669 286.221,212.836 294.5,194.5C 293.757,193.818 293.091,193.151 292.5,192.5C 300.99,191.343 309.657,191.176 318.5,192C 319.056,192.383 319.389,192.883 319.5,193.5 Z M 305.5,225.5 C 306.986,230.741 308.653,236.075 310.5,241.5C 307.572,242.484 304.572,242.817 301.5,242.5C 302.007,236.644 303.341,230.977 305.5,225.5 Z"/></g>
<g><path style="opacity:1" fill="#fafafb" d="M 363.5,191.5 C 377.504,191.333 391.504,191.5 405.5,192C 409.288,192.874 412.954,194.041 416.5,195.5C 419.474,198.138 422.474,200.805 425.5,203.5C 425.707,207.118 426.707,210.452 428.5,213.5C 429.379,221.609 428.045,229.276 424.5,236.5C 422.189,239.147 419.856,241.814 417.5,244.5C 418.463,248.106 420.463,250.773 423.5,252.5C 424.674,253.514 425.34,254.847 425.5,256.5C 425.216,259.857 426.549,262.191 429.5,263.5C 430.439,266.803 431.439,270.136 432.5,273.5C 423.833,273.5 415.167,273.5 406.5,273.5C 406.441,269.954 405.608,266.621 404,263.5C 400.988,258.8 397.988,254.134 395,249.5C 391.974,246.928 389.141,246.928 386.5,249.5C 386.666,257.174 386.5,264.841 386,272.5C 385.283,273.044 384.783,273.711 384.5,274.5C 376.677,275.656 368.677,275.823 360.5,275C 359.584,274.722 358.918,274.222 358.5,273.5C 360.144,273.714 361.644,273.38 363,272.5C 363.5,245.502 363.667,218.502 363.5,191.5 Z M 386.5,210.5 C 390.898,210.294 395.232,210.627 399.5,211.5C 405.103,217.587 404.769,223.254 398.5,228.5C 394.5,228.5 390.5,228.5 386.5,228.5C 387.774,222.508 387.774,216.508 386.5,210.5 Z"/></g>
<g><path style="opacity:0.1" fill="#2e3437" d="M 99.5,190.5 C 97.9743,193.771 97.3076,197.271 97.5,201C 97.2861,204.569 97.9527,207.902 99.5,211C 108.676,211.17 117.676,211.67 126.5,212.5C 120.167,212.5 113.833,212.5 107.5,212.5C 104.482,212.665 101.482,212.498 98.5,212C 97.8742,211.25 97.3742,210.416 97,209.5C 96.3333,203.833 96.3333,198.167 97,192.5C 97.4169,191.244 98.2502,190.577 99.5,190.5 Z"/></g>
<g><path style="opacity:0.29" fill="#4d3d4c" d="M 416.5,194.5 C 420.5,196.5 423.5,199.5 425.5,203.5C 422.474,200.805 419.474,198.138 416.5,195.5C 416.5,195.167 416.5,194.833 416.5,194.5 Z"/></g>
<g><path style="opacity:0.761" fill="#4e676d" d="M 290.5,193.5 C 290.834,196.491 289.834,198.824 287.5,200.5C 287.935,197.843 288.935,195.509 290.5,193.5 Z"/></g>
<g><path style="opacity:0.686" fill="#4a2b49" d="M 321.5,194.5 C 324.068,199.525 326.068,204.859 327.5,210.5C 326.883,210.389 326.383,210.056 326,209.5C 324.184,204.554 322.684,199.554 321.5,194.5 Z"/></g>
<g><path style="opacity:0.231" fill="#2a3339" d="M 199.5,189.5 C 198.833,190.167 198.167,190.833 197.5,191.5C 192.743,193.043 188.076,194.876 183.5,197C 179.266,199.732 175.933,203.232 173.5,207.5C 172.115,208.574 170.949,209.907 170,211.5C 168.241,215.644 166.408,219.644 164.5,223.5C 168.911,204.756 180.578,193.423 199.5,189.5 Z"/></g>
<g><path style="opacity:0.008" fill="#183033" d="M 356.5,193.5 C 357.653,199.653 357.82,205.986 357,212.5C 356.5,206.175 356.334,199.842 356.5,193.5 Z"/></g>
<g><path style="opacity:1" fill="#f0dfef" d="M 319.5,193.5 C 320.167,193.833 320.833,194.167 321.5,194.5C 322.684,199.554 324.184,204.554 326,209.5C 326.383,210.056 326.883,210.389 327.5,210.5C 329.228,218.351 331.562,226.018 334.5,233.5C 333.504,233.586 332.671,233.252 332,232.5C 328.327,223.157 324.661,213.823 321,204.5C 320.064,200.886 319.564,197.22 319.5,193.5 Z"/></g>
<g><path style="opacity:0.737" fill="#6f476d" d="M 244.5,204.5 C 245.5,205.167 246.5,205.833 247.5,206.5C 251.873,211.526 253.54,217.192 252.5,223.5C 252.317,217.143 249.984,211.809 245.5,207.5C 244.89,206.609 244.557,205.609 244.5,204.5 Z"/></g>
<g><path style="opacity:0.518" fill="#654162" d="M 425.5,203.5 C 428.181,206.192 429.514,209.525 429.5,213.5C 429.167,213.5 428.833,213.5 428.5,213.5C 426.707,210.452 425.707,207.118 425.5,203.5 Z"/></g>
<g><path style="opacity:1" fill="#efd1ef" d="M 245.5,207.5 C 249.984,211.809 252.317,217.143 252.5,223.5C 252.167,223.5 251.833,223.5 251.5,223.5C 249.193,218.261 247.193,212.928 245.5,207.5 Z"/></g>
<g><path style="opacity:0.059" fill="#18272a" d="M 285.5,205.5 C 284.935,209.537 283.601,213.203 281.5,216.5C 282.065,212.463 283.399,208.797 285.5,205.5 Z"/></g>
<g><path style="opacity:0.098" fill="#090e0e" d="M 107.5,212.5 C 113.833,212.5 120.167,212.5 126.5,212.5C 126.5,218.5 126.5,224.5 126.5,230.5C 125.833,233.5 125.167,236.5 124.5,239.5C 125.222,231.173 125.389,222.84 125,214.5C 120.847,213.905 116.513,213.905 112,214.5C 110.124,214.475 108.624,213.809 107.5,212.5 Z"/></g>
<g><path style="opacity:0.553" fill="#593757" d="M 327.5,210.5 C 332.317,221.819 336.317,233.486 339.5,245.5C 339.167,245.5 338.833,245.5 338.5,245.5C 337.73,241.297 336.396,237.297 334.5,233.5C 331.562,226.018 329.228,218.351 327.5,210.5 Z"/></g>
<g><path style="opacity:1" fill="#ae9fac" d="M 386.5,210.5 C 387.774,216.508 387.774,222.508 386.5,228.5C 390.5,228.5 394.5,228.5 398.5,228.5C 398.5,228.833 398.5,229.167 398.5,229.5C 394.167,229.5 389.833,229.5 385.5,229.5C 385.177,222.978 385.51,216.645 386.5,210.5 Z"/></g>
<g><path style="opacity:1" fill="#c7f8fb" d="M 398.5,229.5 C 398.5,229.167 398.5,228.833 398.5,228.5C 404.769,223.254 405.103,217.587 399.5,211.5C 402.733,210.156 405.233,211.156 407,214.5C 408.007,219.111 407.34,223.445 405,227.5C 403.211,229.229 401.044,229.896 398.5,229.5 Z"/></g>
<g><path style="opacity:0.075" fill="#203236" d="M 281.5,216.5 C 279.965,223.216 277.632,229.55 274.5,235.5C 276.035,228.784 278.368,222.45 281.5,216.5 Z"/></g>
<g><path style="opacity:1" fill="#c2edef" d="M 292.5,192.5 C 293.091,193.151 293.757,193.818 294.5,194.5C 286.221,212.836 279.221,231.669 273.5,251C 269.447,257.164 267.28,263.998 267,271.5C 265.698,272.085 264.531,272.751 263.5,273.5C 262.876,273.083 262.543,272.416 262.5,271.5C 264.255,267.738 265.255,263.738 265.5,259.5C 270.047,252.207 273.047,244.207 274.5,235.5C 277.632,229.55 279.965,223.216 281.5,216.5C 283.601,213.203 284.935,209.537 285.5,205.5C 285.402,203.447 286.069,201.78 287.5,200.5C 289.834,198.824 290.834,196.491 290.5,193.5C 291.167,193.167 291.833,192.833 292.5,192.5 Z"/></g>
<g><path style="opacity:0.888" fill="#bc9cba" d="M 191.5,224.5 C 191.26,230.227 191.593,235.894 192.5,241.5C 191.21,240.942 190.377,239.942 190,238.5C 189.833,236.5 189.667,234.5 189.5,232.5C 189.287,229.473 189.953,226.807 191.5,224.5 Z"/></g>
<g><path style="opacity:0.702" fill="#7f657b" d="M 428.5,213.5 C 428.833,213.5 429.167,213.5 429.5,213.5C 429.666,219.176 429.499,224.843 429,230.5C 428.626,232.491 427.793,234.158 426.5,235.5C 425.833,235.833 425.167,236.167 424.5,236.5C 428.045,229.276 429.379,221.609 428.5,213.5 Z"/></g>
<g><path style="opacity:0.029" fill="#010101" d="M 103.5,241.5 C 96.5,241.5 89.5,241.5 82.5,241.5C 81.8333,241.5 81.1667,241.5 80.5,241.5C 84.034,239.952 87.8673,239.286 92,239.5C 96.1327,239.286 99.966,239.952 103.5,241.5 Z"/></g>
<g><path style="opacity:0.243" fill="#563e55" d="M 426.5,235.5 C 425.299,239.369 422.966,242.369 419.5,244.5C 420.86,247.22 422.193,249.886 423.5,252.5C 420.463,250.773 418.463,248.106 417.5,244.5C 419.856,241.814 422.189,239.147 424.5,236.5C 425.167,236.167 425.833,235.833 426.5,235.5 Z"/></g>
<g><path style="opacity:1" fill="#a2f4f7" d="M 359.5,191.5 C 360.833,191.5 362.167,191.5 363.5,191.5C 363.667,218.502 363.5,245.502 363,272.5C 361.644,273.38 360.144,273.714 358.5,273.5C 358.169,245.995 358.502,218.662 359.5,191.5 Z"/></g>
<g><path style="opacity:0.016" fill="#2c2f37" d="M 126.5,230.5 C 126.849,236.345 126.016,242.012 124,247.5C 122.833,250 121,251.833 118.5,253C 110.596,253.292 105.596,249.459 103.5,241.5C 106.168,242.457 107.668,244.457 108,247.5C 112.742,253.891 117.409,253.891 122,247.5C 123.341,244.978 124.174,242.311 124.5,239.5C 125.167,236.5 125.833,233.5 126.5,230.5 Z"/></g>
<g><path style="opacity:1" fill="#b380b7" d="M 192.5,242.5 C 193.906,242.973 194.573,243.973 194.5,245.5C 193.094,245.027 192.427,244.027 192.5,242.5 Z"/></g>
<g><path style="opacity:1" fill="#e4dce6" d="M 228.5,241.5 C 236.316,240.508 244.316,240.174 252.5,240.5C 252.116,247.328 249.783,253.328 245.5,258.5C 245.461,257.417 245.127,256.417 244.5,255.5C 247.325,251.364 249.325,246.864 250.5,242C 243.174,241.5 235.841,241.334 228.5,241.5 Z"/></g>
<g><path style="opacity:1" fill="#f3e1f2" d="M 152.5,242.5 C 152.122,249.725 149.956,256.391 146,262.5C 145.292,263.381 144.458,264.047 143.5,264.5C 146.286,256.303 148.786,247.969 151,239.5C 151.232,240.737 151.732,241.737 152.5,242.5 Z"/></g>
<g><path style="opacity:1" fill="#d2f5f7" d="M 173.5,207.5 C 174.091,208.151 174.757,208.818 175.5,209.5C 173.378,211.451 171.878,213.785 171,216.5C 169.47,224.436 169.137,232.436 170,240.5C 172.445,246.216 173.945,252.216 174.5,258.5C 170.393,253.959 167.56,248.626 166,242.5C 164.812,236.222 164.312,229.888 164.5,223.5C 166.408,219.644 168.241,215.644 170,211.5C 170.949,209.907 172.115,208.574 173.5,207.5 Z"/></g>
<g><path style="opacity:1" fill="#e3fafc" d="M 79.5,243.5 C 82.0444,243.104 84.2111,243.771 86,245.5C 87.1557,249.123 88.1557,252.789 89,256.5C 91.4784,259.29 93.3118,262.456 94.5,266C 93.5509,266.617 92.7175,266.451 92,265.5C 91.5357,266.094 91.369,266.761 91.5,267.5C 84.3177,261.135 80.3177,253.135 79.5,243.5 Z"/></g>
<g><path style="opacity:0.125" fill="#1f3439" d="M 164.5,223.5 C 164.312,229.888 164.812,236.222 166,242.5C 167.56,248.626 170.393,253.959 174.5,258.5C 175.921,261.009 177.588,263.343 179.5,265.5C 178.761,265.631 178.094,265.464 177.5,265C 165.299,253.252 160.966,239.419 164.5,223.5 Z"/></g>
<g><path style="opacity:0.643" fill="#345155" d="M 274.5,235.5 C 273.047,244.207 270.047,252.207 265.5,259.5C 267.987,251.214 270.987,243.214 274.5,235.5 Z"/></g>
<g><path style="opacity:0.09" fill="#463043" d="M 153.5,193.5 C 153.833,193.5 154.167,193.5 154.5,193.5C 154.182,209.548 154.515,225.548 155.5,241.5C 153.727,251.657 149.727,260.824 143.5,269C 141.922,270.094 140.255,270.928 138.5,271.5C 138.833,270.833 139.167,270.167 139.5,269.5C 141.183,268.147 142.516,266.48 143.5,264.5C 144.458,264.047 145.292,263.381 146,262.5C 149.956,256.391 152.122,249.725 152.5,242.5C 153.456,226.202 153.789,209.868 153.5,193.5 Z"/></g>
<g><path style="opacity:0.114" fill="#392738" d="M 252.5,240.5 C 254.021,246.51 252.854,252.176 249,257.5C 245.576,262.427 241.41,266.427 236.5,269.5C 235.5,269.5 234.5,269.5 233.5,269.5C 238.341,266.747 242.341,263.08 245.5,258.5C 249.783,253.328 252.116,247.328 252.5,240.5 Z"/></g>
<g><path style="opacity:0.145" fill="#1b272f" d="M 392.5,256.5 C 394.008,258.181 395.008,260.181 395.5,262.5C 393.461,261.089 392.461,259.089 392.5,256.5 Z"/></g>
<g><path style="opacity:0.078" fill="#272128" d="M 386.5,249.5 C 387.833,249.5 389.167,249.5 390.5,249.5C 390.878,251.921 391.545,254.254 392.5,256.5C 390.777,254.747 389.277,252.747 388,250.5C 387.667,258.167 387.333,265.833 387,273.5C 386.329,274.252 385.496,274.586 384.5,274.5C 384.783,273.711 385.283,273.044 386,272.5C 386.5,264.841 386.666,257.174 386.5,249.5 Z"/></g>
<g><path style="opacity:0.827" fill="#846385" d="M 425.5,256.5 C 427.588,258.336 428.921,260.669 429.5,263.5C 426.549,262.191 425.216,259.857 425.5,256.5 Z"/></g>
<g><path style="opacity:0.861" fill="#a6a4b1" d="M 318.5,268.5 C 317.661,267.359 316.994,266.026 316.5,264.5C 309.189,263.335 301.856,263.169 294.5,264C 293.432,266.438 292.098,268.605 290.5,270.5C 291.009,267.808 292.009,265.308 293.5,263C 301.5,262.333 309.5,262.333 317.5,263C 318.406,264.699 318.739,266.533 318.5,268.5 Z"/></g>
<g><path style="opacity:0.314" fill="#243138" d="M 80.5,241.5 C 81.1667,241.5 81.8333,241.5 82.5,241.5C 81.5,242.167 80.5,242.833 79.5,243.5C 80.3177,253.135 84.3177,261.135 91.5,267.5C 91.9528,268.458 92.6195,269.292 93.5,270C 96.488,270.502 99.1547,271.669 101.5,273.5C 102.5,274.167 103.5,274.833 104.5,275.5C 89.0351,271.338 80.0351,261.004 77.5,244.5C 77.5159,242.484 78.5159,241.484 80.5,241.5 Z"/></g>
<g><path style="opacity:1" fill="#f3e0f2" d="M 338.5,245.5 C 338.833,245.5 339.167,245.5 339.5,245.5C 341.014,249.885 342.68,254.218 344.5,258.5C 344.928,261.785 345.928,264.785 347.5,267.5C 347.5,268.5 347.5,269.5 347.5,270.5C 346.603,271.598 345.77,271.598 345,270.5C 343.395,264.352 341.395,258.352 339,252.5C 338.503,250.19 338.337,247.857 338.5,245.5 Z"/></g>
<g><path style="opacity:0.467" fill="#7b5979" d="M 344.5,258.5 C 346.472,261.084 347.472,264.084 347.5,267.5C 345.928,264.785 344.928,261.785 344.5,258.5 Z"/></g>
<g><path style="opacity:0.275" fill="#263a3e" d="M 395.5,262.5 C 397.782,266.718 400.782,270.384 404.5,273.5C 404.5,273.833 404.5,274.167 404.5,274.5C 399.591,272.05 396.591,268.05 395.5,262.5 Z"/></g>
<g><path style="opacity:0.337" fill="#1e2731" d="M 179.5,265.5 C 181.749,266.08 183.415,267.413 184.5,269.5C 182.251,268.92 180.585,267.587 179.5,265.5 Z"/></g>
<g><path style="opacity:1" fill="#bbf2f8" d="M 406.5,273.5 C 405.833,273.5 405.167,273.5 404.5,273.5C 400.782,270.384 397.782,266.718 395.5,262.5C 395.008,260.181 394.008,258.181 392.5,256.5C 391.545,254.254 390.878,251.921 390.5,249.5C 389.167,249.5 387.833,249.5 386.5,249.5C 389.141,246.928 391.974,246.928 395,249.5C 397.988,254.134 400.988,258.8 404,263.5C 405.608,266.621 406.441,269.954 406.5,273.5 Z"/></g>
<g><path style="opacity:0.867" fill="#6c606c" d="M 429.5,263.5 C 431.777,265.874 433.444,268.707 434.5,272C 434.241,273.261 433.574,274.261 432.5,275C 423.089,275.805 413.756,275.638 404.5,274.5C 404.5,274.167 404.5,273.833 404.5,273.5C 405.167,273.5 405.833,273.5 406.5,273.5C 415.167,273.5 423.833,273.5 432.5,273.5C 431.439,270.136 430.439,266.803 429.5,263.5 Z"/></g>
<g><path style="opacity:0.627" fill="#8e7893" d="M 139.5,269.5 C 139.167,270.167 138.833,270.833 138.5,271.5C 136.883,272.038 135.216,272.371 133.5,272.5C 135.181,270.992 137.181,269.992 139.5,269.5 Z"/></g>
<g><path style="opacity:0.192" fill="#4c585a" d="M 265.5,259.5 C 265.255,263.738 264.255,267.738 262.5,271.5C 262.543,272.416 262.876,273.083 263.5,273.5C 272.167,273.5 280.833,273.5 289.5,273.5C 289.082,274.222 288.416,274.722 287.5,275C 279.118,275.803 270.785,275.636 262.5,274.5C 261.629,269.116 262.629,264.116 265.5,259.5 Z"/></g>
<g><path style="opacity:0.031" fill="#0f1218" d="M 184.5,269.5 C 187.442,270.304 190.109,271.638 192.5,273.5C 189.246,273.206 186.579,271.873 184.5,269.5 Z"/></g>
<g><path style="opacity:0.725" fill="#737074" d="M 347.5,267.5 C 349.974,270.021 349.974,272.521 347.5,275C 339.5,275.667 331.5,275.667 323.5,275C 322.944,274.617 322.611,274.117 322.5,273.5C 330.833,273.5 339.167,273.5 347.5,273.5C 347.5,272.5 347.5,271.5 347.5,270.5C 347.5,269.5 347.5,268.5 347.5,267.5 Z"/></g>
<g><path style="opacity:0.974" fill="#acaeb9" d="M 101.5,273.5 C 111.162,274.8 120.829,274.8 130.5,273.5C 122.153,276.621 113.486,277.288 104.5,275.5C 103.5,274.833 102.5,274.167 101.5,273.5 Z"/></g>
<g><path style="opacity:0.028" fill="#262931" d="M 192.5,273.5 C 200.36,275.219 208.36,275.885 216.5,275.5C 212.702,276.483 208.702,276.817 204.5,276.5C 200.141,277.162 196.141,276.162 192.5,273.5 Z"/></g>
<g><path style="opacity:0.063" fill="#0c0a0f" d="M 138.5,271.5 C 136.3,273.64 133.633,275.14 130.5,276C 126.632,276.071 122.799,276.904 119,278.5C 117,277.167 115,277.167 113,278.5C 111.042,277.048 109.042,276.715 107,277.5C 106.005,276.934 105.172,276.267 104.5,275.5C 113.486,277.288 122.153,276.621 130.5,273.5C 131.791,273.737 132.791,273.404 133.5,272.5C 135.216,272.371 136.883,272.038 138.5,271.5 Z"/></g>
<g><path style="opacity:0.066" fill="#100d12" d="M 233.5,269.5 C 234.5,269.5 235.5,269.5 236.5,269.5C 234.572,271.474 232.239,272.974 229.5,274C 222.282,276.487 215.116,277.987 208,278.5C 206.698,277.915 205.531,277.249 204.5,276.5C 208.702,276.817 212.702,276.483 216.5,275.5C 222.706,274.656 228.373,272.656 233.5,269.5 Z"/></g>
</svg>
